<svg width="64" height="64" viewBox="0 0 64 64" fill="none" xmlns="http://www.w3.org/2000/svg">
<g clip-path="url(#clip0_43_584)">
<path d="M43.8643 0.639361L13.9801 30.5256C13.5527 30.9526 13.3386 31.4438 13.3386 31.9995C13.3386 32.5552 13.5527 33.0474 13.9801 33.4746L43.8643 63.3584C44.2925 63.7865 44.7837 63.9999 45.3396 63.9999C45.8953 63.9999 46.3873 63.7858 46.8145 63.3584L50.02 60.1526C50.4474 59.7252 50.661 59.2333 50.661 58.6776C50.661 58.1219 50.4474 57.63 50.02 57.2025L24.8175 31.9995L50.0216 6.79568C50.449 6.36845 50.6613 5.87631 50.6613 5.32151C50.6613 4.76491 50.4477 4.27299 50.0216 3.84577L46.8147 0.639586C46.3875 0.212367 45.8953 9.7759e-05 45.3399 9.77833e-05C44.7837 -0.000123445 44.2918 0.212138 43.8643 0.639361Z" fill="black"/>
</g>
<defs>
<clipPath id="clip0_43_584">
<path d="M32 63.9999C14.3269 63.9999 -6.26248e-07 49.673 -1.39876e-06 31.9999L-2.79753e-06 -0.00012207L64 -0.000124868L64 31.9999C64 49.673 49.6731 63.9999 32 63.9999Z" fill="white"/>
</clipPath>
</defs>
</svg>
