<svg width="18" height="18" viewBox="0 0 18 18" fill="none" xmlns="http://www.w3.org/2000/svg">
<path d="M1.15982 6.61708L8.6314 14.0882C8.73815 14.195 8.86096 14.2485 8.99989 14.2485C9.13881 14.2485 9.26185 14.195 9.36865 14.0882L16.8396 6.61708C16.9467 6.51005 17 6.38724 17 6.24825C17 6.10933 16.9465 5.98635 16.8396 5.87954L16.0382 5.07816C15.9313 4.9713 15.8083 4.9179 15.6694 4.9179C15.5305 4.9179 15.4075 4.9713 15.3007 5.07816L8.99989 11.3788L2.6989 5.07777C2.5921 4.97091 2.46906 4.91784 2.33036 4.91784C2.19121 4.91784 2.06823 4.97124 1.96142 5.07777L1.15987 5.87949C1.05307 5.98629 1 6.10933 1 6.2482C0.999945 6.38724 1.05301 6.51021 1.15982 6.61708Z" fill="black"/>
</svg>
