<svg width="64" height="64" viewBox="0 0 64 64" fill="none" xmlns="http://www.w3.org/2000/svg">
<g clip-path="url(#clip0_43_587)">
<path d="M20.1357 63.3604L50.0199 33.4742C50.4473 33.0472 50.6614 32.5559 50.6614 32.0002C50.6614 31.4445 50.4473 30.9524 50.0199 30.5252L20.1357 0.641385C19.7075 0.213265 19.2163 -0.000121695 18.6604 -0.000121689C18.1047 -0.000121682 17.6127 0.213939 17.1855 0.641385L13.98 3.84712C13.5526 4.27457 13.339 4.76648 13.339 5.32219C13.339 5.87789 13.5526 6.3698 13.98 6.79725L39.1825 32.0002L13.9784 57.2041C13.551 57.6313 13.3387 58.1234 13.3387 58.6782C13.3387 59.2348 13.5523 59.7268 13.9784 60.154L17.1853 63.3602C17.6125 63.7874 18.1047 63.9997 18.6601 63.9997C19.2163 63.9999 19.7082 63.7876 20.1357 63.3604Z" fill="black"/>
</g>
<defs>
<clipPath id="clip0_43_587">
<path d="M32 -0.000121689C49.6731 -0.000121899 64 14.3268 64 31.9999L64 63.9999L7.63192e-07 63.9999L3.81596e-07 31.9999C1.70846e-07 14.3268 14.3269 -0.000121478 32 -0.000121689Z" fill="white"/>
</clipPath>
</defs>
</svg>
