<svg width="14" height="20" viewBox="0 0 14 20" fill="none" xmlns="http://www.w3.org/2000/svg">
<path d="M13.6692 4.9778C13.5969 4.71099 13.45 4.42669 13.3414 4.17778C12.041 1.10222 9.19968 0 6.90543 0C3.8342 0 0.451605 2.02672 0 6.20427V7.0578C0 7.09341 0.0124737 7.41334 0.030192 7.57337C0.283352 9.56434 1.87965 11.6802 3.07185 13.6711C4.35446 15.8042 5.68537 17.9025 7.00392 20C7.81697 18.6312 8.62715 17.2445 9.42165 15.9111C9.63823 15.5198 9.8896 15.1288 10.1064 14.7553C10.2509 14.5066 10.5269 14.258 10.653 14.0266C11.9356 11.7156 14 9.38675 14 7.09335V6.15117C14.0001 5.90254 13.6869 5.03141 13.6692 4.9778ZM6.96165 9.26233C6.05887 9.26233 5.07071 8.81806 4.58296 7.59121C4.51029 7.39591 4.51615 7.00455 4.51615 6.96866V6.41756C4.51615 4.85351 5.86558 4.14226 7.03955 4.14226C8.48477 4.14226 9.60253 5.28019 9.60253 6.70251C9.60253 8.12476 8.40693 9.26233 6.96165 9.26233Z" fill="#FAE5D2"/>
</svg>
