<svg width="20" height="20" viewBox="0 0 20 20" fill="none" xmlns="http://www.w3.org/2000/svg">
<path d="M19.5516 15.819L16.463 12.723C15.8478 12.1089 14.829 12.1275 14.1923 12.7658L12.6362 14.3251C12.5379 14.2708 12.4362 14.2141 12.3291 14.1539C11.3465 13.6082 10.0015 12.8603 8.58632 11.4407C7.16683 10.0182 6.41987 8.66814 5.87373 7.68264C5.8161 7.57824 5.76088 7.47757 5.70635 7.38197L6.75072 6.3368L7.26417 5.82155C7.90179 5.18232 7.91937 4.1615 7.30559 3.54559L4.21691 0.449216C3.60314 -0.165832 2.58388 -0.147173 1.94626 0.492062L1.07576 1.36954L1.09954 1.39321C0.807656 1.7665 0.563747 2.19704 0.382235 2.66132C0.214915 3.10325 0.110743 3.52497 0.0631097 3.94756C-0.344732 7.33631 1.20033 10.4334 5.39343 14.636C11.1896 20.4449 15.8605 20.0061 16.062 19.9847C16.5009 19.9321 16.9214 19.827 17.3489 19.6606C17.8081 19.4808 18.2374 19.2367 18.6096 18.9447L18.6286 18.9617L19.5105 18.0962C20.1468 17.457 20.1651 16.4359 19.5516 15.819Z" fill="black"/>
</svg>
