<svg width="20" height="20" viewBox="0 0 20 20" fill="none" xmlns="http://www.w3.org/2000/svg">
<path d="M10 0C4.48899 0 0 4.489 0 10C0 15.511 4.48899 20 10 20C15.511 20 20 15.511 20 10C20 4.489 15.511 0 10 0ZM10 2C14.4301 2 18 5.56988 18 10C18 14.4301 14.4301 18 10 18C5.56987 18 2 14.4301 2 10C2 5.56988 5.56987 2 10 2ZM4.44531 6.5C4.06431 6.5 4 6.68672 4 6.88672C4 7.24772 4.2995 9.1965 5.9375 11.4375C7.1245 13.0635 8.68922 14 10.0742 14C10.9132 14 11 13.7861 11 13.4531V11.9668C11 11.5658 11.0924 11.5 11.3594 11.5C11.5504 11.5 11.9375 11.625 12.6875 12.5C13.5525 13.509 13.7091 14 14.2051 14H15.5156C15.8196 14 15.995 13.873 16.002 13.625C16.003 13.562 15.9937 13.4901 15.9727 13.4121C15.8757 13.1241 15.432 12.421 14.877 11.75C14.569 11.378 14.266 11.0095 14.127 10.8105C14.032 10.6795 13.996 10.588 14 10.5C14.004 10.408 14.052 10.3183 14.125 10.1953C14.112 10.1953 15.8038 7.82148 15.9688 7.02148C15.9917 6.94548 16.003 6.8745 16 6.8125C15.992 6.6315 15.8672 6.5 15.5742 6.5H14.2656C13.9356 6.5 13.7824 6.69939 13.6934 6.90039C13.6934 6.90039 12.8785 8.5795 11.9375 9.6875C11.6325 10.0075 11.4775 10 11.3125 10C11.2245 10 11 9.89361 11 9.59961V7.00781C11 6.66081 10.9148 6.5 10.6348 6.5H8.31055C8.10655 6.5 8 6.65931 8 6.82031C8 7.15331 8.449 7.23492 8.5 8.16992V9.98047C8.5 10.4205 8.42477 10.5 8.25977 10.5C7.81476 10.5 6.93856 8.9992 6.35156 7.0332C6.22456 6.6462 6.09758 6.5 5.76758 6.5H4.44531Z" fill="black"/>
</svg>
