<svg width="20" height="20" viewBox="0 0 20 20" fill="none" xmlns="http://www.w3.org/2000/svg">
<g clip-path="url(#clip0_40_276)">
<path fill-rule="evenodd" clip-rule="evenodd" d="M0 10C0 4.48598 4.486 0 10 0C15.514 0 20 4.48598 20 10C20 15.514 15.514 20 10 20C4.486 20 0 15.514 0 10ZM2.12756 10.0003C2.12756 14.3412 5.65926 17.8725 9.99992 17.8725C14.3406 17.8725 17.8723 14.3412 17.8723 10.0003C17.8723 5.65942 14.3406 2.12813 9.99992 2.12813C5.65926 2.12813 2.12756 5.65942 2.12756 10.0003Z" fill="#981322"/>
<path d="M15.212 9.69118H10.7179V4.28774C10.7179 3.83302 10.3492 3.46436 9.89453 3.46436C9.43981 3.46436 9.07117 3.83302 9.07117 4.28774V10.5145C9.07117 10.9693 9.43981 11.338 9.89453 11.338H15.212C15.6667 11.338 16.0353 10.9693 16.0353 10.5145C16.0353 10.0599 15.6667 9.69118 15.212 9.69118Z" fill="#981322"/>
</g>
<defs>
<clipPath id="clip0_40_276">
<path d="M0 10C0 4.47715 4.47715 0 10 0C15.5228 0 20 4.47715 20 10V20H0V10Z" fill="white"/>
</clipPath>
</defs>
</svg>
